 http://img23.imageshack.us/img23/2751/chained2010.jpg

Country.......: Australia
Genre.........: Drama, Crime
Date release..: 2010 [World]
Director......: Brad Diebert
Writers.......: Brad Diebert, Paul J. Murphy
Duration......: 98 min.
More..........: http://www.imdb.com/title/tt1619834
Trailer.......:

Pilot :
Jules is put in charge of the Hobby Farm, operating as a hive of illegal gambling, drugs and sex slavery. Jules must overcome the demons of his own past and turn against the only life he has ever known, to save the girls and himself. 

Cats :
Dean Baker   	 ...  	Steve
Stephanie Begg 	... 	Irina
Renzo Bellato 	... 	Marco
John Boxer 	... 	Sienta
Ben Brock 	... 	Rodney
Warren Coulton 	... 	Patron
Brad Diebert 	... 	Father
Jack Diebert 	... 	Young Julian
Wayne Dixon 	... 	Vince
John Freeman 	... 	Alfonso
Anthony Giorgio 	... 	Giorgio
Melanie Holt 	... 	Natasha
Gerard Kennedy 	... 	Mr. Senti
Amelia Kerr 	... 	Vera
George Koutros 	... 	Con 

Data Technical :
!!! SAMPLE !!!
Audio.....: English
Subtitles.: None
Format                           : AVI
Format/Info                      : Audio Video Interleave
File size                        : 1.40 GiB
Duration                         : 1h 37mn
Overall bit rate                 : 2 060 Kbps
Video
ID                               : 0
Format                           : MPEG-4 Visual
Format profile                   : Advanced Simple@L5
Format settings, BVOP            : Yes
Format settings, QPel            : No
Format settings, GMC             : No warppoints
Format settings, Matrix          : Custom
Codec ID                         : XVID
Codec ID/Hint                    : XviD
Duration                         : 1h 37mn
Bit rate                         : 1 667 Kbps
Width                            : 720 pixels
Height                           : 304 pixels
Display aspect ratio             : 2.35:1
Frame rate                       : 29.970 fps
Color space                      : YUV
Chroma subsampling               : 4:2:0
Bit depth                        : 8 bits
Scan type                        : Progressive
Bits/(Pixel*Frame)               : 0.254
Stream size                      : 1.14 GiB (81%)
Writing library                  : XviD 64
Audio
ID                               : 1
Format                           : AC-3
Format/Info                      : Audio Coding 3
Mode extension                   : CM (complete main)
Codec ID                         : 2000
Duration                         : 1h 37mn
Bit rate mode                    : Constant
Bit rate                         : 384 Kbps
Channel(s)                       : 6 channels
Channel positions                : Front: L C R, Side: L R, LFE
Sampling rate                    : 48.0 KHz
Bit depth                        : 16 bits
Stream size                      : 268 MiB (19%)
Alignment                        : Aligned on interleaves
Interleave, duration             : 64 ms (1.92 video frames)
Interleave, preload duration     : 192 ms
Title                            : VTS_01_1 T80 3_2ch 384Kbps DELAY 0ms english
Text
ID                               : 2
Duration                         : 1h 37mn
Bit rate                         : 89 bps
Stream size                      : 63.3 KiB (0%)

Screen : 
http://img811.imageshack.us/img811/8995/chained2010s1.jpg 
http://img196.imageshack.us/img196/2259/chained2010s2.jpg 
http://img15.imageshack.us/img15/1444/chained2010s3.jpg 
http://img683.imageshack.us/img683/4923/chained2010s4.jpg 
http://img585.imageshack.us/img585/4799/chained2010s5.jpg